<svg xmlns="http://www.w3.org/2000/svg" width="18.648" height="19" viewBox="0 0 18.648 19">
  <defs>
    <style>
      .cls-1 {
        fill: #fff;
      }
    </style>
  </defs>
  <g id="noun_Shopping_Cart_990386" data-name="noun_Shopping Cart_990386" transform="translate(-9.593 -12.1)">
    <path id="Path_222" data-name="Path 222" class="cls-1" d="M13.941,14.627l-.278-1.693a1,1,0,0,0-.985-.834H10.227a.633.633,0,0,0-.632.581.6.6,0,0,0,.632.682H12.3a.246.246,0,0,1,.253.2l2,11.319a2.968,2.968,0,0,0,2.906,2.527H25.31c.253,0,.505-.253.505-.657a.62.62,0,0,0-.632-.606H17.326a1.626,1.626,0,0,1-1.642-1.39l-.227-1.39H24.2A2.968,2.968,0,0,0,27.1,20.842l1.137-6.215h-14.3Zm11.875,6.089a1.643,1.643,0,0,1-1.642,1.39H15.229L14.168,15.89H26.7Z"/>
    <g id="Group_791" data-name="Group 791" transform="translate(15.684 28.826)">
      <circle id="Ellipse_6" data-name="Ellipse 6" class="cls-1" cx="1.137" cy="1.137" r="1.137" transform="translate(0)"/>
    </g>
    <g id="Group_792" data-name="Group 792" transform="translate(22.784 28.826)">
      <circle id="Ellipse_7" data-name="Ellipse 7" class="cls-1" cx="1.137" cy="1.137" r="1.137"/>
    </g>
  </g>
</svg>